<svg width="28" height="28" viewBox="0 0 28 28" fill="none" xmlns="http://www.w3.org/2000/svg">
<path d="M23.1667 7.3479H4.83333C4.3731 7.3479 4 7.73722 4 8.21746V22.1305C4 22.6107 4.3731 23.0001 4.83333 23.0001H23.1667C23.6269 23.0001 24 22.6107 24 22.1305V8.21746C24 7.73722 23.6269 7.3479 23.1667 7.3479Z" stroke="#191919" stroke-width="2" stroke-linecap="round" stroke-linejoin="round"/>
<path d="M9.83301 10.8261V7.34782C9.83301 6.19471 10.272 5.08882 11.0534 4.27345C11.8348 3.45807 12.8946 3 13.9997 3C15.1047 3 16.1646 3.45807 16.946 4.27345C17.7274 5.08882 18.1663 6.19471 18.1663 7.34782V10.8261" stroke="#191919" stroke-width="2" stroke-linecap="round" stroke-linejoin="round"/>
</svg>
