<svg width="40" height="40" viewBox="0 0 40 40" fill="none" xmlns="http://www.w3.org/2000/svg">
<g id="Group 16">
<g id="Group 11">
<path id="&#60;Path&#62;" d="M26.1486 7.14282H13.8547C10.1488 7.14282 7.14453 10.1471 7.14453 13.853V26.1469C7.14453 29.8529 10.1488 32.8571 13.8547 32.8571H26.1486C29.8546 32.8571 32.8589 29.8529 32.8589 26.1469V13.853C32.8589 10.1471 29.8546 7.14282 26.1486 7.14282Z" stroke="#191919" stroke-width="2" stroke-linecap="round" stroke-linejoin="round"/>
<path id="&#60;Path&#62;_2" d="M20.002 26.7348C23.7215 26.7348 26.7367 23.7196 26.7367 20.0001C26.7367 16.2806 23.7215 13.2654 20.002 13.2654C16.2826 13.2654 13.2673 16.2806 13.2673 20.0001C13.2673 23.7196 16.2826 26.7348 20.002 26.7348Z" stroke="#191919" stroke-width="2" stroke-linecap="round" stroke-linejoin="round"/>
<path id="&#60;Path&#62;_3" d="M27.3481 12.0407C27.6862 12.0407 27.9603 11.7665 27.9603 11.4284C27.9603 11.0903 27.6862 10.8162 27.3481 10.8162C27.01 10.8162 26.7358 11.0903 26.7358 11.4284C26.7358 11.7665 27.01 12.0407 27.3481 12.0407Z" stroke="#191919" stroke-width="2" stroke-linecap="round" stroke-linejoin="round"/>
</g>
</g>
</svg>
