<svg width="14" height="13" viewBox="0 0 14 13" fill="none" xmlns="http://www.w3.org/2000/svg">
<path id="Vector" fill-rule="evenodd" clip-rule="evenodd" d="M6.54935 1.2697L5.0862 4.11464C5.01446 4.25763 4.87327 4.35759 4.70898 4.3817L1.43403 4.8395C1.30114 4.85704 1.18109 4.92447 1.10059 5.02682C1.0201 5.12917 0.985816 5.25794 1.00538 5.38451C1.02183 5.48855 1.07411 5.58442 1.15398 5.65702L3.52588 7.88065C3.64576 7.99023 3.69951 8.15013 3.66877 8.30575L3.09723 11.4395C3.05587 11.6978 3.23881 11.9401 3.50874 11.9846C3.62004 12.0012 3.734 11.984 3.83452 11.9355L6.7551 10.4585C6.901 10.3819 7.07787 10.3819 7.22377 10.4585L10.1615 11.9464C10.408 12.067 10.7103 11.9774 10.8416 11.7448C10.8928 11.651 10.9109 11.5439 10.8931 11.4395L10.3215 8.30575C10.2939 8.15033 10.3472 7.99179 10.4644 7.88065L12.8535 5.65702C13.0488 5.46814 13.0488 5.16463 12.8535 4.97576C12.7737 4.90536 12.6746 4.85809 12.5677 4.8395L9.29275 4.3817C9.12924 4.35583 8.98881 4.25642 8.91554 4.11464L7.45238 1.2697C7.39457 1.15435 7.29036 1.06614 7.16338 1.0251C7.0364 0.984054 6.89742 0.993646 6.77796 1.0517C6.67941 1.09936 6.59933 1.17572 6.54935 1.2697Z" stroke="#191919" stroke-linecap="round" stroke-linejoin="round"/>
</svg>
