<svg width="90" height="27" viewBox="0 0 90 27" fill="none" xmlns="http://www.w3.org/2000/svg">
<path fill-rule="evenodd" clip-rule="evenodd" d="M0 26.9684L17.2393 27L17.2485 0.00923656L0.00537481 0L0 26.9684ZM1.8904 2.2899V25.0857L2.25128 25.1104H15.031L15.3604 25.1065V1.89349L1.89117 1.88965L1.8904 2.2899ZM30.2871 10.8306L30.3324 13.3507L32.1913 13.3545L32.2543 12.2962C32.6697 12.1738 37.305 12.2123 38.0138 12.2561L38.0675 13.3237L39.9395 13.3645L39.9364 10.6782L39.1164 10.6397V3.83625C38.6925 3.74158 32.771 3.76775 31.9886 3.807C31.9295 4.65984 31.5847 9.72917 31.0365 10.4042C30.7455 10.7621 30.4429 10.5204 30.2871 10.8306ZM83.5768 3.86396C82.1763 4.07255 81.6135 4.58364 81.4338 6.01223C81.3301 6.8289 81.3232 9.42745 81.4353 10.2326C81.6258 11.5988 82.2362 12.203 83.5584 12.4386C84.4567 12.5987 86.8708 12.601 87.7669 12.4463C89.073 12.22 89.7172 11.6373 89.8976 10.2941C90.0327 9.28505 90.0289 7.11061 89.9168 6.09228C89.7556 4.62829 89.225 4.05485 87.7907 3.85857C86.8915 3.73542 84.4514 3.73311 83.5768 3.86396ZM43.5091 14.5499C42.0986 14.7816 41.5918 15.3081 41.4245 16.7767C41.3185 17.708 41.3116 20.0603 41.4467 20.9654C41.6464 22.2978 42.2698 22.909 43.6151 23.123C44.5649 23.2746 46.8691 23.2723 47.819 23.1083C49.1066 22.8859 49.707 22.2509 49.9005 20.9362C50.0242 20.0918 50.0173 17.5179 49.9051 16.6604C49.7193 15.2334 49.1442 14.7131 47.7084 14.5176C46.863 14.4029 44.3292 14.4144 43.5091 14.5499ZM20.8881 23.1907L26.0617 23.203C29.7749 23.2022 29.7058 19.5907 27.8968 18.6009C28.4013 18.0144 28.8804 17.5087 28.6378 16.2556C28.465 15.3612 27.8968 14.8431 27.0944 14.6084C26.2698 14.3675 21.9553 14.406 20.8888 14.476L20.8881 23.1907ZM3.81689 12.534L5.69423 12.5363L5.72878 9.46208L10.0102 9.45978C11.8422 9.45978 11.509 10.0763 11.5213 12.5279L13.4716 12.5371C13.4762 10.3157 13.7895 9.30045 12.3836 8.60539C12.8519 8.23901 13.0877 8.219 13.3426 7.61323C13.8593 6.38477 13.7004 4.27884 11.6196 3.87243C10.9047 3.73311 4.76592 3.75004 3.76774 3.80854C3.76621 5.03623 3.6303 11.9298 3.81689 12.534ZM61.4341 12.5209L63.399 12.5317L63.4005 9.61988L67.7119 9.61295L67.718 12.5317L69.6699 12.5363L69.6706 3.80238C68.2885 3.76082 66.8542 3.79546 65.4668 3.79546C61.5823 3.79623 61.4326 4.39044 61.4326 8.23747C61.4326 9.66529 61.428 11.0931 61.4341 12.5209ZM31.2277 16.1686L32.2174 16.3349L32.2312 23.183L34.1969 23.1861V20.9685C37.9101 20.6914 39.9395 21.7482 39.9395 17.3886C39.9395 15.4374 38.962 14.4983 37.0163 14.4629C35.1628 14.429 33.0651 14.3983 31.2223 14.4706L31.2277 16.1686ZM81.5789 23.1938C84.3692 23.2053 83.5361 23.5717 84.7838 21.7298C85.4511 20.743 87.0689 18.1037 87.6402 17.3493C87.7722 17.1746 87.667 17.2693 87.846 17.1392L87.8567 23.1653L89.8239 23.2061V14.4683C87.1641 14.3959 87.0651 15.0156 85.9655 16.662L84.2034 19.3952C84.003 19.71 83.7957 20.1195 83.553 20.305L83.5384 14.4745L81.6342 14.4606C81.4653 14.9578 81.5789 22.0438 81.5789 23.1938ZM71.5081 23.163L73.7885 23.2061L77.7705 17.0992L77.7858 23.1899L79.7476 23.1976L79.7453 14.4714C77.2107 14.3082 76.8998 15.1041 75.9108 16.6481C75.5898 17.15 73.691 20.1519 73.476 20.3466C73.4138 19.2852 73.6088 15.061 73.4115 14.4637L71.5349 14.4629L71.5081 23.163ZM49.7255 12.5209L49.7239 10.6952C48.4255 10.629 46.9935 10.6844 45.6882 10.6844C44.0712 10.6844 43.0093 11.0669 43.2941 9.04413L48.2259 9.02874L48.2274 7.21529L43.298 7.21144C42.9801 5.29871 44.1618 5.64585 45.6122 5.64508C46.9275 5.64508 48.3303 5.69203 49.6349 5.63584L49.6487 3.80777C48.6904 3.75543 44.1695 3.75081 43.3724 3.87551C41.0989 4.23034 41.3177 5.94373 41.3177 8.16127C41.3185 10.3904 41.0935 12.0799 43.3747 12.4601C44.105 12.5817 48.8647 12.584 49.7255 12.5209ZM13.4808 23.1614L13.4793 14.4737L11.5735 14.4606C11.3662 15.0933 11.5674 20.1626 11.5105 21.338C10.6099 21.4273 9.35218 21.3565 8.41312 21.3565C7.42646 21.3565 6.26166 21.5504 5.87621 20.6914C5.4347 19.7085 5.96067 15.803 5.69423 14.4721L3.81689 14.4606C3.68252 14.9001 3.76774 18.2553 3.76698 18.9904C3.76621 23.2069 4.94022 23.203 8.86921 23.203C9.80904 23.203 12.7736 23.3246 13.4808 23.1614ZM71.5096 12.5255L73.4115 12.5386C73.6127 11.9229 73.3624 9.87542 73.4906 9.04105L77.7574 9.03643C77.8972 9.90313 77.6292 11.8667 77.8342 12.534L79.7131 12.5363L79.7484 3.82855C79.204 3.75389 78.3625 3.78622 77.7851 3.807V7.16988L73.466 7.17142L73.4645 3.80623L71.5065 3.82317L71.5096 12.5255ZM29.1407 12.5371L29.0962 10.6975C27.8362 10.6159 26.355 10.6844 25.0727 10.6844C22.4621 10.6844 22.5212 11.1508 22.5473 7.16988C22.552 6.49792 22.555 5.89446 23.1578 5.70973C23.544 5.5912 26.6115 5.61968 27.1927 5.65816L27.2142 7.1337L28.8528 7.14371C29.2267 6.26624 29.1438 4.81533 29.1407 3.79623C27.896 3.79469 23.6837 3.73388 22.7554 3.86011C20.4043 4.18108 20.5909 5.87907 20.5917 8.16127C20.5917 10.4296 20.4005 12.0891 22.6802 12.464C23.5663 12.6094 27.9175 12.5356 29.1407 12.5371ZM69.838 23.2007L69.8342 21.358C69.0863 21.3534 64.2674 21.4304 63.7814 21.2795C63.1917 21.0963 63.2055 20.5444 63.2024 19.8301C63.1971 18.5216 62.9375 16.6043 63.8313 16.3672C64.312 16.2402 67.242 16.2956 67.9054 16.3241L67.91 17.7788L69.5977 17.8058C69.8196 16.5535 69.8426 15.7891 69.8373 14.4645C68.6924 14.4537 64.186 14.3975 63.3683 14.5276C61.0425 14.897 61.2368 16.5581 61.2368 18.838C61.2368 21.0909 61.051 22.7874 63.3668 23.1314C64.3096 23.2723 65.5558 23.203 66.5317 23.203C67.6328 23.2038 68.737 23.2099 69.838 23.2007ZM59.8624 23.203L59.8578 21.3572C58.4979 21.3549 57.1512 21.3565 55.8052 21.3565C52.9795 21.3565 53.2214 21.6844 53.2475 17.7673C53.2521 17.063 53.2713 16.5288 53.8695 16.371C54.2994 16.2579 57.3546 16.2841 57.9259 16.3318L57.9297 17.7912L59.622 17.8019C59.8332 16.5511 59.867 15.7868 59.8616 14.4629C58.6745 14.4629 54.3025 14.3967 53.4686 14.5191C51.083 14.8686 51.2942 16.518 51.2942 18.838C51.2942 21.1309 51.106 22.7974 53.4233 23.1322C54.3578 23.2669 58.6193 23.2061 59.8624 23.203ZM50.9049 10.8306V12.5348C54.39 12.6372 53.7351 9.40513 54.2841 5.652L57.6287 5.64508L57.6441 12.5094L59.6052 12.5348L59.6059 3.81624L52.5872 3.79546L51.9176 9.59755C51.6389 10.9007 51.1122 10.4073 50.9049 10.8306ZM84.0943 5.68279C83.282 5.84828 83.3388 6.51562 83.3403 7.32228C83.3434 10.1502 83.0079 10.6882 84.8645 10.6852C87.6809 10.6805 88.0018 11.0269 87.9995 9.00026C87.9949 6.12846 88.3328 5.642 86.4623 5.64431C85.8634 5.64508 84.6003 5.58042 84.0943 5.68279ZM43.9737 16.3895C43.2143 16.6374 43.3448 17.327 43.3456 18.1514C43.3494 21.0424 43.0323 21.3657 45.0033 21.3626C47.7821 21.3572 48.0017 21.662 47.9979 19.5238C47.9925 16.5504 48.2835 16.3179 46.2963 16.3218C45.7489 16.3225 44.4029 16.2486 43.9737 16.3895ZM33.0221 10.415L37.1392 10.4227L37.1538 5.6597L34.0303 5.64508C33.578 5.64508 33.74 5.57041 33.6156 6.6711C33.5657 7.11292 33.5404 7.55166 33.4935 7.99963C33.3031 9.82 33.3599 9.02181 33.0221 10.415ZM5.72802 7.61785C6.88744 7.63094 8.03304 7.62093 9.17404 7.62093C10.2313 7.62093 11.5942 7.8988 11.6111 6.63647C11.6288 5.39261 10.1899 5.64508 9.17404 5.64508C8.03228 5.64431 6.88283 5.63122 5.74184 5.64739L5.72802 7.61785ZM34.2015 19.1012C35.0591 19.1351 35.9606 19.1158 36.7914 19.1089C37.8157 19.1012 38.0068 18.7925 38.0122 17.7711C38.0168 16.8213 37.8671 16.331 36.8674 16.3133C36.0327 16.2987 35.0223 16.2771 34.1992 16.3279L34.2015 19.1012ZM63.4013 7.77487L67.7157 7.7818L67.7165 5.68048C67.1875 5.57118 65.1934 5.62814 64.55 5.64662C63.171 5.68664 63.3844 6.52486 63.4013 7.77487ZM22.8453 21.3518L25.9857 21.3565C26.633 21.3565 26.9915 21.2833 27.0929 20.7168C27.1958 20.1449 26.9539 19.7524 26.4372 19.6777C25.6632 19.5653 23.7083 19.6446 22.8422 19.6669L22.8453 21.3518ZM22.8376 17.8674C23.3305 17.9643 24.5806 17.8981 25.1488 17.8989C25.9442 17.9004 26.6798 18.0036 26.7236 17.1477C26.7704 16.2486 25.9888 16.3318 25.2248 16.3333C24.6842 16.3341 23.2768 16.2687 22.843 16.3718L22.8376 17.8674Z" fill="#191919" fill-opacity="0.7"/>
</svg>
