<svg width="83" height="29" viewBox="0 0 83 29" fill="none" xmlns="http://www.w3.org/2000/svg">
<path d="M36.3656 24.6809C36.3656 24.771 36.3247 24.8774 36.2592 25.0003C36.1937 25.1231 36.0954 25.2459 35.9889 25.3606C35.8743 25.4752 35.7515 25.5735 35.6287 25.6553C35.4976 25.729 35.3666 25.77 35.2356 25.77H1.75333C1.25384 25.77 1 25.6799 1 25.4998C1 25.295 1.18014 25.033 1.54862 24.7301C1.9171 24.4189 2.35927 24.2633 2.88333 24.2633H4.40637C5.35622 24.2633 6.54353 24.2633 7.96012 24.2469C9.37671 24.2387 10.9079 24.2224 12.562 24.2142C14.2242 24.206 15.7964 24.1896 17.2949 24.1814C18.7934 24.1732 20.0871 24.1651 21.1844 24.1651H23.2724C23.7555 24.1651 24.3451 24.0995 25.0575 23.9767C25.7617 23.8457 26.4495 23.6328 27.1127 23.3216C27.776 23.0105 28.341 22.6174 28.8077 22.1261C29.2745 21.6348 29.5119 21.0371 29.5119 20.3247C29.5119 19.4813 29.1189 18.7034 28.341 17.991C27.5631 17.2868 26.5396 16.6399 25.2622 16.0586C23.9848 15.4772 22.5273 14.9367 20.8896 14.4291C19.2601 13.9296 17.5897 13.4547 15.8865 13.0125C14.1833 12.5621 12.5211 12.1363 10.8834 11.7269C9.25389 11.3093 7.79636 10.8999 6.51897 10.4741C5.23339 10.0483 4.20985 9.6143 3.43195 9.15575C2.65405 8.6972 2.2692 8.2059 2.2692 7.68184C2.2692 7.428 2.44116 7.09228 2.80144 6.66648C3.15354 6.24888 3.7513 5.79852 4.60289 5.3154C5.44629 4.84048 6.55991 4.34917 7.96012 3.85787C9.35215 3.36657 11.0717 2.93258 13.127 2.53954C15.1905 2.15469 17.6142 1.83534 20.4146 1.5815C23.2069 1.32766 26.4331 1.20483 30.0933 1.20483C31.1414 1.20483 32.0012 1.25396 32.6808 1.36041C33.3523 1.45867 33.8927 1.58969 34.2858 1.73708C34.687 1.88447 34.9654 2.04824 35.1128 2.22019C35.2602 2.38396 35.3339 2.53135 35.3339 2.64599C35.3339 2.80157 35.2356 2.93258 35.0227 3.03903C34.818 3.14548 34.5805 3.21918 34.3021 3.27649C34.0319 3.33381 33.7617 3.36657 33.4997 3.38294C33.2377 3.39113 33.0411 3.39932 32.9019 3.39932C32.7873 3.39932 32.6972 3.38294 32.6235 3.35019C32.558 3.30925 32.5253 3.22736 32.5253 3.08816C32.5253 2.97352 32.4352 2.87526 32.2632 2.80157C32.0995 2.71968 31.7965 2.65418 31.3789 2.59686C30.9531 2.53954 30.3799 2.49041 29.6593 2.45766C28.9469 2.4249 28.0217 2.40853 26.908 2.40853C22.863 2.40853 19.3911 2.56411 16.4924 2.88345C13.5855 3.2028 11.1945 3.58765 9.31121 4.02983C7.42788 4.48019 6.03585 4.95511 5.14332 5.4546C4.25898 5.95409 3.80861 6.37989 3.80861 6.7238C3.80861 7.19873 4.20166 7.64909 4.97136 8.07489C5.74926 8.50068 6.781 8.91829 8.05838 9.34408C9.33577 9.76988 10.7851 10.1957 12.4146 10.6297C14.0359 11.0636 15.6981 11.5058 17.3931 11.9644C19.0963 12.4229 20.7586 12.9142 22.3799 13.4383C24.0012 13.9623 25.4505 14.5355 26.7361 15.1496C28.0135 15.772 29.037 16.4434 29.8149 17.1722C30.5928 17.9009 30.9858 18.7034 30.9858 19.5714C30.9858 20.2592 30.8057 20.8569 30.4536 21.3728C30.0933 21.8887 29.6675 22.339 29.168 22.7239C28.6604 23.1088 28.1281 23.4281 27.5549 23.6819C26.9817 23.9358 26.4822 24.1487 26.0483 24.337C26.9817 24.337 27.907 24.3452 28.8241 24.3698C29.6266 24.3943 30.4618 24.4025 31.3461 24.4025H33.7208C34.2039 24.4025 34.6215 24.3943 34.9736 24.3861C35.3257 24.378 35.5632 24.3698 35.6778 24.3698C36.1363 24.3698 36.3656 24.4762 36.3656 24.6809Z" fill="#191919" stroke="#191919"/>
<path d="M49.5573 22.9941C49.5573 23.0923 49.5163 23.1578 49.4508 23.207C48.6729 23.5427 47.9114 23.8457 47.1581 24.0913C46.4948 24.3124 45.7988 24.5171 45.0782 24.7054C44.3658 24.8938 43.7271 24.9838 43.1785 24.9838C42.4989 24.9183 42.155 24.6481 42.155 24.1568C42.155 23.862 42.2532 23.5263 42.4579 23.1496C42.6708 22.773 42.9083 22.4127 43.1785 22.077C43.4569 21.7331 43.7189 21.4301 43.9892 21.1681C44.2512 20.906 44.4395 20.7505 44.5542 20.7013C44.3904 20.7259 44.0219 20.7668 43.4405 20.8405C42.851 20.906 42.2532 20.9633 41.6391 21.0125C41.4999 21.2172 41.2788 21.4383 40.9676 21.6757C40.6647 21.9214 40.3371 22.1425 39.9932 22.3472C39.6493 22.5519 39.33 22.732 39.0188 22.8958C38.7077 23.0514 38.4866 23.166 38.3474 23.2397C38.1918 23.3052 38.0116 23.3707 37.8151 23.4444C37.6268 23.5099 37.4221 23.5918 37.2174 23.6819C37.1764 23.6819 37.1355 23.6573 37.1027 23.6C37.0618 23.5427 37.0454 23.4854 37.0454 23.4444C37.0454 23.3544 37.07 23.297 37.1191 23.2725C37.2993 23.207 37.4794 23.1333 37.6513 23.0678C37.8151 22.9941 37.9707 22.9286 38.1099 22.8631C38.7732 22.5683 39.3545 22.2407 39.854 21.905C40.3617 21.5611 40.6974 21.2581 40.8858 21.0125C40.5664 21.0125 40.3208 20.9797 40.1488 20.9224C39.9769 20.8651 39.8458 20.8078 39.7558 20.7341C39.6657 20.644 39.6084 20.5621 39.5838 20.4966C39.5838 20.2919 39.7066 20.0381 39.9441 19.7433C40.1816 19.4485 40.4682 19.1701 40.7957 18.9244C41.1314 18.6706 41.4671 18.4495 41.811 18.2694C42.155 18.0892 42.4252 17.991 42.6299 17.991C42.7691 17.991 42.8592 18.0483 42.9083 18.1465C42.9492 18.253 42.9738 18.3594 42.9738 18.4741C42.9738 18.5887 42.9247 18.6952 42.8346 18.7852C42.7937 18.8262 42.7036 18.9081 42.5808 19.0227C42.4579 19.1373 42.3269 19.2602 42.1877 19.383C42.0485 19.5058 41.9339 19.6205 41.8274 19.7269C41.721 19.8252 41.6718 19.8907 41.6718 19.9152C41.6718 19.9398 41.7292 19.9644 41.8438 19.9807C41.9584 20.0053 42.1959 20.0135 42.5644 20.0135H43.0802C43.3095 20.0135 43.5715 19.9971 43.8663 19.9644C44.1611 19.9316 44.4641 19.8825 44.7752 19.8252C45.0782 19.7678 45.373 19.6941 45.6514 19.6041C45.7169 19.6041 45.7824 19.645 45.8561 19.7269C45.9216 19.8088 45.9544 19.8907 45.9544 19.9807C45.9544 20.2755 45.8315 20.4639 45.5777 20.5294C45.4221 20.644 45.2092 20.8078 44.9636 21.0289C44.7097 21.2418 44.4723 21.4874 44.243 21.7658C44.0137 22.036 43.8172 22.3144 43.6452 22.5846C43.4733 22.8631 43.3832 23.1087 43.3832 23.338C43.3832 23.5427 43.4733 23.7146 43.6452 23.8375C43.8172 23.9603 44.1202 24.0258 44.5542 24.0258C45.1437 24.0258 45.7251 23.9603 46.2983 23.8211C46.8715 23.6819 47.3873 23.5345 47.8377 23.3707C48.3863 23.1906 48.9022 22.9859 49.3853 22.7566C49.4262 22.7566 49.4672 22.7894 49.4999 22.8467C49.5409 22.904 49.5573 22.9531 49.5573 22.9941Z" fill="#191919" stroke="#191919"/>
<path d="M57.2949 22.994C57.2949 23.0923 57.2621 23.1578 57.1966 23.2069C56.255 23.5918 55.3461 23.9357 54.4535 24.2305C53.7002 24.4761 52.9141 24.7054 52.1035 24.9265C51.2928 25.1476 50.6132 25.2622 50.0646 25.2622C49.6142 25.2622 49.2375 25.1476 48.9509 24.9347C48.6643 24.7136 48.5251 24.4352 48.5251 24.0913C48.5251 23.7719 48.6316 23.4771 48.8363 23.2069C49.041 22.9285 49.2621 22.691 49.4996 22.4863C49.7452 22.2816 49.9581 22.1097 50.1546 21.9705C50.343 21.8313 50.4412 21.7576 50.4412 21.733C50.4412 21.6839 50.3593 21.6511 50.1874 21.6266C50.0154 21.602 49.7288 21.5611 49.3112 21.4874C49.0656 21.4464 48.8936 21.3727 48.8199 21.2663C48.738 21.168 48.6971 21.0534 48.6971 20.9387C48.6971 20.7832 48.7462 20.6358 48.8527 20.5129C48.9509 20.3901 49.0246 20.3 49.0738 20.2591C49.5323 19.9643 50.0646 19.6613 50.6869 19.3666C51.301 19.0718 51.9151 18.8098 52.5211 18.5805C53.1188 18.3512 53.6756 18.1629 54.1751 18.0319C54.6828 17.8927 55.0349 17.8271 55.2396 17.8271C55.4689 17.8271 55.6818 17.8763 55.8783 17.9745C56.0666 18.081 56.1649 18.2611 56.1649 18.5068C56.1649 18.6214 56.1076 18.7442 55.993 18.8671C55.8783 18.9981 55.7391 19.1127 55.5835 19.211C55.4198 19.3174 55.256 19.3993 55.0677 19.473C54.8875 19.5385 54.7319 19.5713 54.5927 19.5713C54.4781 19.5713 54.3717 19.5467 54.2652 19.5058C54.1588 19.4566 54.1096 19.3748 54.1096 19.2601C54.1096 19.1291 54.1669 18.9817 54.2816 18.8179C54.3307 18.7688 54.3471 18.7279 54.3471 18.6787C54.3471 18.6378 54.2898 18.6132 54.1751 18.6132C54.1342 18.6132 54.0605 18.6214 53.9704 18.6296C53.8803 18.6378 53.7821 18.6542 53.6674 18.6787C53.4791 18.7279 53.2171 18.8098 52.8732 18.9408C52.5375 19.0636 52.1935 19.2028 51.8496 19.3666C51.5057 19.5221 51.1946 19.6777 50.9243 19.8169C50.6459 19.9479 50.4822 20.0462 50.4085 20.0871C50.3184 20.1608 50.2693 20.2263 50.2693 20.3C50.2693 20.4147 50.343 20.4884 50.4822 20.5375C50.4985 20.5375 50.5804 20.5457 50.7196 20.5539C50.8588 20.5703 51.0062 20.5784 51.1618 20.5866C51.3256 20.603 51.4812 20.6112 51.6285 20.6112H51.9479C52.2017 20.6276 52.3491 20.6767 52.3983 20.7422C52.4474 20.8159 52.4638 20.9305 52.4638 21.0943C52.4638 21.209 52.4474 21.3236 52.3983 21.4382C52.3491 21.5529 52.2017 21.6347 51.9479 21.6757C51.473 21.7903 51.0062 21.9868 50.5641 22.2653C50.1219 22.5437 49.8926 22.9121 49.8926 23.3707C49.8926 23.69 50.0728 23.9275 50.4249 24.0749C50.777 24.2223 51.1209 24.296 51.4402 24.296C52.0298 24.296 52.6603 24.2141 53.3235 24.0421C53.9868 23.8702 54.6009 23.6982 55.1741 23.5099C55.8374 23.2806 56.4843 23.035 57.1229 22.7566C57.1721 22.7566 57.213 22.7893 57.2458 22.8466C57.2785 22.9039 57.2949 22.9531 57.2949 22.994Z" fill="#191919" stroke="#191919"/>
<path d="M80.4931 3.22724C80.4931 2.79326 80.3703 2.47391 80.1164 2.2692C79.8626 2.06449 79.5351 1.95804 79.1256 1.95804C78.5279 1.95804 77.7991 2.22826 76.9311 2.7605C76.0632 3.30094 75.1297 4.04608 74.1389 4.98774C73.1481 5.93759 72.1246 7.0594 71.0683 8.35317C70.0202 9.63874 69.0294 11.039 68.0877 12.5456C67.1542 14.0523 66.3026 15.6326 65.5411 17.2949C64.7714 18.9489 64.1736 20.6194 63.7397 22.3144C64.8369 21.6511 66.0078 20.8404 67.2689 19.8824C68.5217 18.9244 69.7663 17.8763 71.0028 16.7463C72.2392 15.6163 73.4265 14.4289 74.5811 13.2007C75.7356 11.9642 76.751 10.7524 77.619 9.56505C78.4869 8.37773 79.183 7.23955 79.707 6.1423C80.2311 5.04506 80.4931 4.07064 80.4931 3.22724ZM81.9998 3.16173C81.9998 3.82499 81.7213 4.66839 81.1645 5.69194C80.5995 6.72368 79.8544 7.84549 78.9209 9.06556C77.9793 10.2938 76.8902 11.563 75.6456 12.8895C74.4009 14.216 73.0908 15.5016 71.7233 16.7463C70.3559 17.9909 68.972 19.1536 67.58 20.2427C66.1798 21.3236 64.8451 22.2407 63.5677 22.994C63.2484 24.4843 63.0846 25.9009 63.0846 27.2438C63.0846 27.5631 63.0437 27.7924 62.97 27.9152C62.8881 28.038 62.7243 28.1035 62.4705 28.1035L62.1593 28.0708C61.9792 28.0462 61.8563 27.948 61.8072 27.776C61.7499 27.604 61.7171 27.4075 61.7171 27.1783C61.7171 26.0564 61.8318 24.9428 62.061 23.821C61.3978 24.1404 60.7755 24.3942 60.1941 24.5743C59.6127 24.7545 59.0887 24.8446 58.6301 24.8446C58.1797 24.8446 57.8195 24.7545 57.5738 24.5743C57.32 24.3942 57.1398 24.1895 57.0252 23.9602C56.886 23.7064 56.8041 23.4198 56.7795 23.1004C56.7795 22.5109 57.0088 21.9786 57.451 21.5037C57.8932 21.037 58.4418 20.6439 59.0805 20.3246C59.7192 20.0052 60.3824 19.7596 61.0866 19.5876C61.7826 19.4157 62.3804 19.3338 62.8799 19.3338C63.0682 19.3338 63.1583 19.4075 63.1583 19.5712C63.1583 19.735 63.0764 19.8087 62.9208 19.8087L62.7161 19.776C62.2412 19.776 61.7253 19.8578 61.1849 20.0134C60.6363 20.1772 60.1368 20.3901 59.67 20.6685C59.2033 20.9387 58.8184 21.2662 58.5237 21.6265C58.2289 21.995 58.0815 22.3799 58.0815 22.7893C58.0815 23.0923 58.1634 23.3215 58.3271 23.4935C58.4827 23.6654 58.6547 23.7883 58.8348 23.8538C59.0641 23.9438 59.3179 23.993 59.5882 23.993C60.3169 23.993 61.2095 23.7146 62.2576 23.1659C62.667 21.4791 63.2811 19.7596 64.0918 18.0155C64.9024 16.2631 65.8277 14.5681 66.8758 12.9223C67.9239 11.2764 69.0621 9.72881 70.2822 8.27947C71.5022 6.83013 72.7141 5.56912 73.926 4.49644C75.1379 3.42376 76.3088 2.57217 77.4388 1.94166C78.5606 1.31116 79.576 1 80.4603 1C81.009 1 81.402 1.18014 81.6395 1.53224C81.8851 1.88435 81.9998 2.42478 81.9998 3.16173Z" fill="#191919" stroke="#191919"/>
<path d="M78.9862 22.9614C78.9862 23.0514 78.9535 23.1251 78.888 23.1661L77.3404 23.7884C77.1111 23.8785 76.8245 24.0013 76.4724 24.1487C76.1121 24.2961 75.7272 24.4353 75.3178 24.5745C74.9084 24.7137 74.5072 24.8283 74.1223 24.9348C73.7293 25.033 73.3935 25.0903 73.0906 25.0903C72.6157 25.0903 72.37 24.9429 72.37 24.64C72.37 24.5499 72.3946 24.4353 72.4273 24.2797C72.4601 24.1323 72.5338 23.9849 72.6484 23.8211C72.4683 23.9603 72.2144 24.1077 71.8951 24.2797C71.5757 24.4516 71.2318 24.6154 70.8633 24.7628C70.503 24.9102 70.1264 25.0412 69.7497 25.1558C69.3731 25.2705 69.0373 25.3278 68.7426 25.3278C68.3086 25.3278 67.9892 25.2459 67.8009 25.074C67.6044 24.902 67.5061 24.6891 67.5061 24.4353C67.5061 24.0013 67.7354 23.469 68.1939 22.8303C68.6525 22.1835 69.2339 21.5775 69.9381 20.9961C70.6504 20.4148 71.4283 19.9153 72.2717 19.5059C73.1151 19.0883 73.9258 18.8835 74.7037 18.8835C75.0885 18.8835 75.367 18.9572 75.5225 19.0883C75.6863 19.2193 75.7682 19.3994 75.7682 19.6369C75.7682 20.0054 75.5962 20.3411 75.2687 20.6359C74.933 20.9306 74.6218 21.1681 74.327 21.3564C74.237 21.3974 74.1633 21.4219 74.1223 21.4219C74.0732 21.4219 74.0159 21.3974 73.934 21.3401C73.8521 21.2827 73.8112 21.209 73.8112 21.1108C73.8112 20.9961 73.9012 20.8242 74.0896 20.6031C74.1796 20.5048 74.2861 20.3738 74.4171 20.2019C74.5399 20.0299 74.5972 19.8907 74.5972 19.7761C74.5972 19.686 74.5645 19.6123 74.4826 19.555C74.4007 19.4977 74.2369 19.4649 73.9831 19.4649C73.5983 19.4649 73.1151 19.6123 72.542 19.8989C71.977 20.1855 71.4283 20.5458 70.8961 20.9716C70.372 21.3974 69.9217 21.8396 69.545 22.2981C69.1683 22.7566 68.98 23.1579 68.98 23.51C68.98 23.7556 69.0865 23.9522 69.2912 24.075C69.4959 24.206 69.7252 24.2633 69.9708 24.2633C70.2246 24.2633 70.5112 24.206 70.8306 24.0914C71.1499 23.9849 71.4611 23.8539 71.7559 23.7147C72.0507 23.5837 72.3209 23.4363 72.5583 23.2889C72.804 23.1415 72.9514 23.0351 73.0251 22.9614L73.2298 22.7566C73.3199 22.6666 73.4099 22.6174 73.5 22.6174C73.5491 22.6174 73.6146 22.642 73.7129 22.6911C73.803 22.7321 73.8439 22.814 73.8439 22.9286C73.7293 23.1087 73.6556 23.2725 73.6064 23.4117C73.5573 23.5427 73.5409 23.6737 73.5409 23.7884C73.5409 24.0832 73.7456 24.2306 74.1551 24.2306C74.4089 24.2306 74.6873 24.1896 74.9985 24.1077C75.3014 24.034 75.6126 23.944 75.9156 23.8375C76.2267 23.7311 76.5133 23.6328 76.7754 23.5264C77.0374 23.4281 77.2421 23.3544 77.3731 23.3053C77.8316 23.1251 78.1756 22.9859 78.4048 22.8959C78.544 22.8303 78.6751 22.773 78.8143 22.7239C78.8634 22.7239 78.9043 22.7485 78.9371 22.8058C78.9698 22.8631 78.9862 22.9204 78.9862 22.9614Z" fill="#191919" stroke="#191919"/>
</svg>
