<svg width="27" height="27" viewBox="0 0 27 27" fill="none" xmlns="http://www.w3.org/2000/svg">
<path fill-rule="evenodd" clip-rule="evenodd" d="M12.7865 3.46585L10.4698 8.37984C10.3562 8.62682 10.1327 8.79947 9.87255 8.84111L4.68722 9.63187C4.4768 9.66215 4.28673 9.77864 4.15927 9.95542C4.03182 10.1322 3.97754 10.3546 4.00851 10.5732C4.03457 10.753 4.11734 10.9185 4.2438 11.0439L7.99931 14.8848C8.18912 15.074 8.27422 15.3502 8.22555 15.619L7.32061 21.0319C7.25512 21.478 7.54479 21.8965 7.97217 21.9733C8.14839 22.002 8.32884 21.9724 8.48798 21.8886L13.1122 19.3375C13.3432 19.2052 13.6233 19.2052 13.8543 19.3375L18.5057 21.9074C18.896 22.1157 19.3747 21.9609 19.5826 21.5591C19.6636 21.3971 19.6922 21.2122 19.664 21.0319L18.7591 15.619C18.7153 15.3506 18.7997 15.0767 18.9853 14.8848L22.768 11.0439C23.0773 10.7177 23.0773 10.1935 22.768 9.86721C22.6417 9.74562 22.4848 9.66398 22.3155 9.63187L17.1302 8.84111C16.8713 8.79644 16.6489 8.62472 16.5329 8.37984L14.2163 3.46585C14.1247 3.2666 13.9597 3.11425 13.7587 3.04335C13.5576 2.97246 13.3376 2.98902 13.1484 3.0893C12.9924 3.17162 12.8656 3.30352 12.7865 3.46585Z" stroke="#191919" stroke-width="2" stroke-linecap="round" stroke-linejoin="round"/>
</svg>
